<mxfile host="65bd71144e">
    <diagram id="3zzulmQV-wtPomGACrlD" name="Page-1">
        <mxGraphModel dx="2391" dy="1502" grid="1" gridSize="10" guides="1" tooltips="1" connect="1" arrows="1" fold="1" page="0" pageScale="1" pageWidth="1169" pageHeight="827" background="none" math="0" shadow="0">
            <root>
                <mxCell id="0"/>
                <mxCell id="1" parent="0"/>
                <mxCell id="4" style="edgeStyle=none;html=1;exitX=0;exitY=0.5;exitDx=0;exitDy=0;entryX=0.5;entryY=0;entryDx=0;entryDy=0;startArrow=none;startFill=0;rounded=0;" edge="1" parent="1" source="6" target="14">
                    <mxGeometry relative="1" as="geometry">
                        <Array as="points">
                            <mxPoint x="-700" y="40"/>
                            <mxPoint x="-700" y="490"/>
                            <mxPoint x="-500" y="490"/>
                        </Array>
                    </mxGeometry>
                </mxCell>
                <mxCell id="5" style="edgeStyle=none;rounded=0;html=1;exitX=0.5;exitY=1;exitDx=0;exitDy=0;entryX=0.5;entryY=0;entryDx=0;entryDy=0;startArrow=none;startFill=0;" edge="1" parent="1" source="6" target="8">
                    <mxGeometry relative="1" as="geometry">
                        <Array as="points"/>
                    </mxGeometry>
                </mxCell>
                <mxCell id="6" value="next != null&amp;nbsp;&lt;br&gt;&amp;amp;&amp;amp;&lt;br&gt;timeRemaining()" style="rhombus;whiteSpace=wrap;html=1;" vertex="1" parent="1">
                    <mxGeometry x="-600" y="-10" width="200" height="100" as="geometry"/>
                </mxCell>
                <mxCell id="7" style="edgeStyle=none;rounded=0;html=1;exitX=0.5;exitY=1;exitDx=0;exitDy=0;entryX=0.5;entryY=0;entryDx=0;entryDy=0;startArrow=none;startFill=0;" edge="1" parent="1" source="8" target="11">
                    <mxGeometry relative="1" as="geometry"/>
                </mxCell>
                <mxCell id="8" value="next = beginWork(current, WIP)" style="whiteSpace=wrap;html=1;" vertex="1" parent="1">
                    <mxGeometry x="-585" y="180" width="170" height="60" as="geometry"/>
                </mxCell>
                <mxCell id="9" style="edgeStyle=none;rounded=0;html=1;exitX=0;exitY=0.5;exitDx=0;exitDy=0;entryX=0.5;entryY=0;entryDx=0;entryDy=0;startArrow=none;startFill=0;" edge="1" parent="1" source="11" target="6">
                    <mxGeometry relative="1" as="geometry">
                        <Array as="points">
                            <mxPoint x="-630" y="295"/>
                            <mxPoint x="-630" y="430"/>
                            <mxPoint x="-500" y="430"/>
                            <mxPoint x="-500" y="460"/>
                            <mxPoint x="-240" y="460"/>
                            <mxPoint x="-240" y="-40"/>
                            <mxPoint x="-500" y="-40"/>
                        </Array>
                    </mxGeometry>
                </mxCell>
                <mxCell id="10" style="edgeStyle=none;rounded=0;html=1;exitX=1;exitY=0.5;exitDx=0;exitDy=0;entryX=0.5;entryY=0;entryDx=0;entryDy=0;startArrow=none;startFill=0;" edge="1" parent="1" source="11" target="24">
                    <mxGeometry relative="1" as="geometry">
                        <mxPoint x="-385" y="340" as="targetPoint"/>
                        <Array as="points">
                            <mxPoint x="-385" y="295"/>
                        </Array>
                    </mxGeometry>
                </mxCell>
                <mxCell id="11" value="next != null" style="rhombus;whiteSpace=wrap;html=1;" vertex="1" parent="1">
                    <mxGeometry x="-570" y="270" width="140" height="50" as="geometry"/>
                </mxCell>
                <mxCell id="12" style="edgeStyle=none;rounded=0;html=1;exitX=0;exitY=0.5;exitDx=0;exitDy=0;entryX=0.5;entryY=0;entryDx=0;entryDy=0;startArrow=none;startFill=0;" edge="1" parent="1" source="14" target="18">
                    <mxGeometry relative="1" as="geometry">
                        <Array as="points">
                            <mxPoint x="-665" y="558"/>
                        </Array>
                    </mxGeometry>
                </mxCell>
                <mxCell id="13" style="edgeStyle=none;rounded=0;html=1;exitX=1;exitY=0.5;exitDx=0;exitDy=0;entryX=0.5;entryY=0;entryDx=0;entryDy=0;startArrow=none;startFill=0;" edge="1" parent="1" source="14" target="16">
                    <mxGeometry relative="1" as="geometry">
                        <Array as="points">
                            <mxPoint x="-335" y="558"/>
                        </Array>
                    </mxGeometry>
                </mxCell>
                <mxCell id="14" value="next != null" style="rhombus;whiteSpace=wrap;html=1;" vertex="1" parent="1">
                    <mxGeometry x="-555" y="530" width="110" height="55" as="geometry"/>
                </mxCell>
                <mxCell id="15" style="edgeStyle=none;rounded=0;html=1;exitX=0.5;exitY=1;exitDx=0;exitDy=0;startArrow=none;startFill=0;" edge="1" parent="1" source="16" target="25">
                    <mxGeometry relative="1" as="geometry">
                        <Array as="points">
                            <mxPoint x="-335" y="690"/>
                            <mxPoint x="-502" y="690"/>
                        </Array>
                    </mxGeometry>
                </mxCell>
                <mxCell id="16" value="requestIdleCallback(performWork)" style="shape=process;whiteSpace=wrap;html=1;backgroundOutline=1;" vertex="1" parent="1">
                    <mxGeometry x="-460" y="600" width="250" height="60" as="geometry"/>
                </mxCell>
                <mxCell id="17" style="edgeStyle=none;rounded=0;html=1;exitX=0.5;exitY=1;exitDx=0;exitDy=0;entryX=0.5;entryY=0.5;entryDx=0;entryDy=-25;entryPerimeter=0;startArrow=none;startFill=0;" edge="1" parent="1" source="18" target="25">
                    <mxGeometry relative="1" as="geometry">
                        <Array as="points">
                            <mxPoint x="-665" y="690"/>
                            <mxPoint x="-502" y="690"/>
                        </Array>
                    </mxGeometry>
                </mxCell>
                <mxCell id="18" value="commitWork(current, WIP)" style="shape=process;whiteSpace=wrap;html=1;backgroundOutline=1;" vertex="1" parent="1">
                    <mxGeometry x="-790" y="600" width="250" height="60" as="geometry"/>
                </mxCell>
                <mxCell id="19" style="edgeStyle=none;rounded=0;html=1;startArrow=none;startFill=0;" edge="1" parent="1" source="20" target="6">
                    <mxGeometry relative="1" as="geometry"/>
                </mxCell>
                <mxCell id="20" value="Начало" style="html=1;dashed=0;whitespace=wrap;shape=mxgraph.dfd.start" vertex="1" parent="1">
                    <mxGeometry x="-567.5" y="-120" width="135" height="50" as="geometry"/>
                </mxCell>
                <mxCell id="21" value="Да" style="text;html=1;resizable=0;autosize=1;align=center;verticalAlign=middle;points=[];fillColor=none;strokeColor=none;rounded=0;" vertex="1" parent="1">
                    <mxGeometry x="-430" y="275" width="30" height="20" as="geometry"/>
                </mxCell>
                <mxCell id="22" value="Да" style="text;html=1;resizable=0;autosize=1;align=center;verticalAlign=middle;points=[];fillColor=none;strokeColor=none;rounded=0;" vertex="1" parent="1">
                    <mxGeometry x="-490" y="100" width="30" height="20" as="geometry"/>
                </mxCell>
                <mxCell id="23" style="edgeStyle=none;rounded=0;html=1;exitX=0.5;exitY=1;exitDx=0;exitDy=0;startArrow=none;startFill=0;" edge="1" parent="1" source="24">
                    <mxGeometry relative="1" as="geometry">
                        <mxPoint x="-500" y="-40" as="targetPoint"/>
                        <Array as="points">
                            <mxPoint x="-385" y="430"/>
                            <mxPoint x="-500" y="430"/>
                            <mxPoint x="-500" y="460"/>
                            <mxPoint x="-240" y="460"/>
                            <mxPoint x="-240" y="-40"/>
                        </Array>
                    </mxGeometry>
                </mxCell>
                <mxCell id="24" value="&lt;span&gt;next = completeWork(current, WIP)&lt;/span&gt;" style="shape=process;whiteSpace=wrap;html=1;backgroundOutline=1;" vertex="1" parent="1">
                    <mxGeometry x="-505" y="340" width="240" height="60" as="geometry"/>
                </mxCell>
                <mxCell id="25" value="Конец" style="html=1;dashed=0;whitespace=wrap;shape=mxgraph.dfd.start" vertex="1" parent="1">
                    <mxGeometry x="-570" y="720" width="135" height="50" as="geometry"/>
                </mxCell>
                <mxCell id="26" style="edgeStyle=none;rounded=0;html=1;exitX=0;exitY=0.5;exitDx=0;exitDy=0;exitPerimeter=0;entryX=1;entryY=0.5;entryDx=0;entryDy=0;entryPerimeter=0;startArrow=none;startFill=0;dashed=1;endArrow=none;endFill=0;" edge="1" parent="1" source="27" target="20">
                    <mxGeometry relative="1" as="geometry"/>
                </mxCell>
                <mxCell id="27" value="Функция performWork&lt;br&gt;Вход: current, текущее Fiber-дерево&lt;br&gt;&amp;nbsp; &amp;nbsp; &amp;nbsp; &amp;nbsp; &amp;nbsp; &amp;nbsp;WIP, workInProgress дерево&amp;nbsp;" style="strokeWidth=1;html=1;shape=mxgraph.flowchart.annotation_1;align=left;pointerEvents=1;" vertex="1" parent="1">
                    <mxGeometry x="-400" y="-127.5" width="10" height="65" as="geometry"/>
                </mxCell>
            </root>
        </mxGraphModel>
    </diagram>
</mxfile>